<?xml version="1.0" encoding="utf-8"?>
<!-- Generator: Adobe Illustrator 28.1.0, SVG Export Plug-In . SVG Version: 6.00 Build 0)  -->
<svg version="1.1" xmlns="http://www.w3.org/2000/svg" xmlns:xlink="http://www.w3.org/1999/xlink" x="0px" y="0px"
	 viewBox="0 0 200 80" style="enable-background:new 0 0 200 80;" xml:space="preserve">
<style type="text/css">
	.st0{display:none;}
	.st1{display:none;opacity:0.19;fill:#0000FF;}
	.st2{fill:#0071BC;}
	.st3{fill:#009245;}
	.st4{fill:#020202;}
</style>
<g id="Layer_1" class="st0">
</g>
<g id="Layer_2">
	<g>
		<path class="st2" d="M30.1,33.5c1.3,1.1,11.8,10.3,10,21.1c-0.2,1.4-0.6,2.9-1.5,4.7c6.4,2.8,10.7,1,12.8,0.1
			C53.1,58.7,40.4,27.8,30.1,33.5z"/>
		<path class="st3" d="M17.9,50.5c0.2-1.7,2.6-15.4,12.7-19.6c1.3-0.5,2.8-1.1,4.8-1.2c-0.9-7-4.8-9.6-6.6-10.9
			C27.3,17.7,7.6,44.7,17.9,50.5z"/>
		<path d="M38.5,53.1c-1.6,0.6-14.8,5-23.2-1.9c-1.1-0.9-2.2-2-3.3-3.7c-5.7,4.1-6.2,8.8-6.5,11C5.1,60.3,38.2,64.8,38.5,53.1z"/>
		<g>
			<g>
				<path d="M60.9,27.6c1.1,0,2,0.2,2.6,0.7c0.6,0.4,1,1.2,1,2.2c0,2.3-1.9,3.2-3.4,3.2c-0.2,0-0.3,0-0.4,0l-1.1-0.3v2.4
					c0,1.3,0.1,1.3,1.5,1.5v0.4h-4.3v-0.4c1.3-0.1,1.4-0.2,1.4-1.5v-6.1c0-1.4-0.2-1.4-1.4-1.5v-0.4H60.9z M59.6,32.7
					c0.2,0.1,0.6,0.2,1.1,0.2c1,0,2.3-0.5,2.3-2.5c0-1.7-1.1-2.4-2.4-2.4c-0.4,0-0.8,0.1-0.9,0.2c-0.1,0.1-0.2,0.3-0.2,0.7V32.7z"/>
				<path class="st3" d="M77.2,28c-1,0.1-1.3,0.3-1.4,1c0,0.5,0,1.1,0,2.6v6.2h-0.6l-6.6-8.1v3.9c0,1.4,0,2.1,0.1,2.5
					c0,0.8,0.4,1,1.5,1.1v0.4h-3.7v-0.4c1-0.1,1.3-0.3,1.4-1.1c0-0.5,0.1-1.2,0.1-2.6v-3.9c0-0.4,0-0.7-0.3-1
					c-0.3-0.4-0.6-0.5-1.4-0.6v-0.4h2.3l6.5,7.8v-3.8c0-1.4,0-2.1-0.1-2.6c0-0.7-0.4-0.9-1.6-1v-0.4h3.8V28z"/>
				<path class="st2" d="M79.1,37.6v-0.4c1.3-0.1,1.4-0.2,1.4-1.5v-6.1c0-1.3-0.1-1.4-1.4-1.5v-0.4h4.1V28c-1.3,0.1-1.4,0.2-1.4,1.5
					v6.1c0,1.3,0.1,1.4,1.4,1.5v0.4H79.1z"/>
				<path d="M99,35.1c-0.2,0.7-0.6,1.9-0.8,2.3c-0.4,0.1-1.7,0.4-2.8,0.4c-3.7,0-5.6-2.5-5.6-5.2c0-3.1,2.4-5.3,5.8-5.3
					c1.3,0,2.4,0.3,2.9,0.4c0.1,0.7,0.2,1.6,0.3,2.4l-0.5,0.1c-0.3-1-0.7-1.7-1.5-2c-0.4-0.2-1-0.3-1.6-0.3c-2.5,0-3.9,1.9-3.9,4.4
					c0,3,1.5,4.9,4,4.9c1.6,0,2.3-0.7,3.1-2.3L99,35.1z"/>
				<path d="M106.3,27.3c2.6,0,5,2,5,5.1c0,3.3-2.3,5.4-5.1,5.4c-3,0-5.1-2.3-5.1-5.2C101.1,29.9,103.1,27.3,106.3,27.3z M106,27.9
					c-1.7,0-3.3,1.5-3.3,4.3c0,2.9,1.6,5,3.8,5c1.9,0,3.3-1.4,3.3-4.4C109.7,29.6,108,27.9,106,27.9z"/>
				<path d="M124.2,28c-1,0.1-1.3,0.3-1.4,1c0,0.5,0,1.1,0,2.6v6.2h-0.6l-6.6-8.1v3.9c0,1.4,0,2.1,0.1,2.5c0,0.8,0.4,1,1.5,1.1v0.4
					h-3.7v-0.4c1-0.1,1.3-0.3,1.4-1.1c0-0.5,0.1-1.2,0.1-2.6v-3.9c0-0.4,0-0.7-0.3-1c-0.3-0.4-0.6-0.5-1.4-0.6v-0.4h2.3l6.5,7.8
					v-3.8c0-1.4,0-2.1-0.1-2.6c0-0.7-0.4-0.9-1.6-1v-0.4h3.8V28z"/>
				<path d="M131.4,29.9c-0.3-1-0.7-2-2.1-2c-1.2,0-1.6,0.9-1.6,1.7c0,1.1,0.7,1.6,2,2.3c1.9,1,2.7,1.7,2.7,3.1
					c0,1.6-1.4,2.9-3.4,2.9c-0.9,0-1.7-0.3-2.4-0.5c-0.1-0.4-0.3-1.5-0.4-2.3l0.5-0.1c0.3,1,1,2.4,2.6,2.4c1.1,0,1.8-0.8,1.8-1.8
					c0-1.2-0.6-1.7-2-2.4c-1.6-0.9-2.5-1.6-2.5-3.1c0-1.4,1.1-2.7,3.2-2.7c0.9,0,1.7,0.2,2,0.3c0.1,0.6,0.1,1.2,0.2,2.2L131.4,29.9z
					"/>
				<path d="M139.6,27.3c2.6,0,5,2,5,5.1c0,3.3-2.3,5.4-5.1,5.4c-3,0-5.1-2.3-5.1-5.2C134.4,29.9,136.4,27.3,139.6,27.3z
					 M139.3,27.9c-1.7,0-3.3,1.5-3.3,4.3c0,2.9,1.6,5,3.8,5c1.9,0,3.3-1.4,3.3-4.4C143,29.6,141.3,27.9,139.3,27.9z"/>
				<path d="M156,37.7c-0.2,0-0.4,0-0.6,0c-1.1-0.1-1.7-0.4-2.4-1.3c-0.6-0.8-1.1-1.8-1.6-2.5c-0.3-0.5-0.5-0.6-1.3-0.6h-0.5v2.4
					c0,1.3,0.2,1.4,1.4,1.5v0.4h-4.1v-0.4c1.3-0.1,1.4-0.2,1.4-1.5v-6.2c0-1.3-0.2-1.4-1.4-1.5v-0.4h3.9c1.1,0,1.9,0.1,2.5,0.5
					c0.6,0.4,1,1.1,1,2c0,1.3-0.8,2.2-2,2.7c0.3,0.5,0.9,1.5,1.4,2.2c0.6,0.8,0.9,1.2,1.2,1.6c0.4,0.4,0.8,0.6,1.1,0.7L156,37.7z
					 M150.3,32.7c0.8,0,1.3-0.1,1.7-0.4c0.6-0.4,0.8-1.1,0.8-1.9c0-1.7-1.1-2.3-2.3-2.3c-0.4,0-0.7,0.1-0.8,0.2
					c-0.1,0.1-0.2,0.3-0.2,0.7v3.8H150.3z"/>
				<path d="M165.2,30c-0.1-0.5-0.3-1-0.5-1.3c-0.2-0.4-0.4-0.5-1.2-0.5h-1.5v7.5c0,1.2,0.1,1.4,1.6,1.5v0.4H159v-0.4
					c1.4-0.1,1.6-0.2,1.6-1.5v-7.5h-1.4c-0.8,0-1.1,0.1-1.4,0.6c-0.2,0.3-0.3,0.7-0.5,1.2h-0.5c0.1-0.9,0.2-1.9,0.2-2.8h0.4
					c0.2,0.4,0.4,0.4,0.8,0.4h6.1c0.4,0,0.6-0.1,0.8-0.4h0.4c0,0.7,0.1,1.8,0.1,2.7L165.2,30z"/>
				<path d="M167.6,37.6v-0.4c1.3-0.1,1.4-0.2,1.4-1.5v-6.1c0-1.3-0.1-1.4-1.4-1.5v-0.4h4.1V28c-1.3,0.1-1.4,0.2-1.4,1.5v6.1
					c0,1.3,0.1,1.4,1.4,1.5v0.4H167.6z"/>
				<path d="M184.4,28c-1,0.1-1.3,0.3-1.4,1c0,0.4,0,1,0,2.4v1.7c0,1.6-0.2,2.8-1.1,3.7c-0.7,0.8-1.8,1-2.8,1
					c-0.9,0-1.9-0.2-2.5-0.7c-0.9-0.7-1.4-1.8-1.4-3.6v-3.9c0-1.4-0.1-1.5-1.4-1.6v-0.4h4.1V28c-1.2,0.1-1.4,0.2-1.4,1.6v3.9
					c0,2.3,1.1,3.5,2.9,3.5c2.2,0,2.9-1.4,2.9-3.9v-1.6c0-1.4,0-2-0.1-2.4c0-0.7-0.4-1-1.5-1v-0.4h3.7V28z"/>
				<path d="M194.6,37.6v-0.4c1.3-0.1,1.3-0.2,1.3-1.9l0-6.3c-1.3,2.8-3.3,7.2-3.8,8.6h-0.4c-0.5-1.4-2.3-5.6-3.4-8.4
					c-0.3,5.4-0.3,6.6-0.3,6.9c0,0.9,0.4,1,1.5,1.1v0.4h-3.7v-0.4c0.9-0.1,1.3-0.3,1.4-1.1c0.1-0.7,0.1-1.2,0.5-6.9
					c0.1-0.8-0.1-1.1-1.5-1.2v-0.4h2.7l3.4,7.8l3.7-7.8h2.7V28c-1.3,0.2-1.5,0.3-1.5,1.4l0.1,5.9c0.1,1.7,0.1,1.7,1.5,1.9v0.4H194.6
					z"/>
			</g>
		</g>
		<g>
			<path d="M28,43.3c0-0.1,0-0.2,0.1-0.3c-0.1,0-0.1,0-0.2-0.1c-0.1,0-0.1-0.1-0.1-0.1c0,0,0.1-0.1,0.1-0.1c0,0,0.1,0,0.2-0.1
				c0,0,0-0.1-0.1-0.1c-0.1-0.2-0.1-0.5,0.1-0.6c0.2-0.2,0.2-0.2,0.4,0c0.2,0.2,0.2,0.4,0.1,0.6c0,0,0,0.1-0.1,0.1
				c0.1,0,0.1,0,0.2,0c0.1,0,0.2,0.1,0.1,0.2c0,0.1-0.1,0.1-0.1,0.1c0,0-0.1,0-0.2,0.1c0,0.1,0,0.2,0.1,0.3c0,0,0,0,0,0
				c0.3-0.2,0.6-0.4,1-0.4c0.5,0,0.9,0.1,1.3,0.2c0.6,0.2,1.1,0.4,1.7,0.6c0.3,0.1,0.6,0.1,0.9,0.1c0,0,0,0,0,0
				c0.1,0,0.2-0.1,0.2-0.2c0-0.1-0.1-0.1-0.2-0.2c0,0-0.1,0-0.2-0.1c-0.1,0-0.2-0.1-0.2-0.2c0-0.1,0.1-0.2,0.1-0.2
				c0.2-0.1,0.5-0.1,0.7,0.1c0.2,0.1,0.2,0.4,0.2,0.6c-0.1,0.2-0.2,0.3-0.4,0.4c-0.1,0-0.2,0.1-0.4,0.1c0.1,0.2,0.2,0.4-0.1,0.5
				c0.1,0.1,0.1,0.3,0.2,0.4c0.4,1,0.9,2,1.3,2.9c0.1,0.1,0.1,0.2,0.3,0.1c0,0.3-0.1,0.5-0.2,0.7c-0.2,0.3-0.4,0.4-0.7,0.5
				c-0.6,0.2-1.3,0.2-1.9-0.1c-0.4-0.2-0.7-0.6-0.8-1.1c0,0,0-0.1,0-0.1c0,0,0,0,0,0c0.1,0,0.2-0.1,0.3-0.2c0.5-1.1,0.9-2.1,1.4-3.2
				c0,0,0-0.1,0-0.1c-0.2-0.2-0.2-0.2-0.1-0.5c-0.2,0-0.3,0-0.5,0c-0.6-0.1-1.1-0.2-1.7-0.3c-0.5-0.1-1.1-0.1-1.6-0.1
				c-0.1,0-0.3,0.1-0.4,0.1C29,44,28.9,44.3,29,44.5c0,0.1,0.1,0.1,0.1,0.2c0.1,0.2,0,0.3-0.2,0.4c-0.1,0-0.1,0-0.2,0.1
				c-0.1,0-0.1,0-0.1,0.1c0,1.3,0.1,2.7,0.1,4c0,0.1,0,0.2,0,0.3c0,0.1,0.2,0.1,0.3,0.2c0.4,0.3,0.5,0.7,0.5,1.2c0,0,0,0.1,0,0.1
				c0.3,0.1,0.4,0.3,0.2,0.6c0.2,0,0.3,0.1,0.5,0.3c0.1,0.1,0.2,0.3,0.2,0.5c-1.3,0-2.7,0-4,0c0-0.3,0.3-0.6,0.7-0.7
				c-0.1-0.1-0.1-0.2-0.1-0.3c0.1-0.1,0.1-0.2,0.3-0.2c0-0.2,0-0.3,0-0.5c0.1-0.4,0.3-0.7,0.6-0.9c0.1,0,0.1-0.1,0.1-0.1
				c0-1.4,0.1-2.8,0.1-4.3c0-0.1,0-0.1-0.1-0.1c-0.1,0-0.2,0-0.2-0.1c-0.2-0.1-0.2-0.2-0.1-0.4c0-0.1,0.1-0.1,0.1-0.2
				c0.1-0.2,0-0.5-0.2-0.6c-0.2-0.1-0.4-0.1-0.6-0.1c-0.7,0-1.3,0.1-1.9,0.2c-0.5,0.1-1,0.2-1.6,0.2c0,0,0,0,0,0
				c0,0.1,0.1,0.2,0.1,0.3c0,0.1-0.1,0.2-0.1,0.3c0.1,0.2,0.2,0.5,0.3,0.7c0.4,0.8,0.7,1.7,1.1,2.5c0.1,0.1,0.1,0.3,0.3,0.2
				c0,0.3-0.1,0.5-0.2,0.8c-0.3,0.4-0.6,0.5-1,0.6c-0.6,0.1-1.3,0.1-1.8-0.3c-0.3-0.2-0.5-0.5-0.5-0.9c0,0,0-0.1,0-0.1c0,0,0,0,0,0
				c0.1,0,0.2-0.1,0.2-0.2c0.5-1.1,1-2.1,1.4-3.2c0,0,0-0.1,0-0.1c-0.2-0.2-0.2-0.3,0-0.5c-0.1,0-0.2-0.1-0.4-0.1
				c-0.2-0.1-0.3-0.2-0.4-0.4c-0.1-0.2,0-0.5,0.2-0.6c0.2-0.2,0.5-0.2,0.7-0.1c0.1,0,0.1,0.1,0.1,0.2c0,0.1-0.1,0.1-0.2,0.2
				c-0.1,0-0.2,0.1-0.2,0.1c-0.1,0.1-0.1,0.2,0,0.3c0.1,0,0.2,0.1,0.3,0.1c0.2,0,0.4,0,0.7-0.1c0.5-0.1,0.9-0.3,1.4-0.4
				c0.5-0.2,1-0.3,1.5-0.4C27.2,42.9,27.6,43,28,43.3C28,43.3,28,43.3,28,43.3z M24.7,48.2c-0.5-1.1-1-2.2-1.5-3.4
				c-0.5,1.1-1,2.3-1.5,3.4C22.7,48.2,23.6,48.2,24.7,48.2z M32,48.2c1,0,2,0,3,0c-0.5-1.1-1-2.2-1.5-3.4C33,46,32.5,47.1,32,48.2z
				 M23.1,44.3c0,0.1-0.1,0.1-0.1,0.2c0,0.1,0,0.2,0.1,0.2c0,0,0.1,0,0.1-0.1C23.3,44.5,23.3,44.3,23.1,44.3z M33.5,44.2
				c0,0.1-0.1,0.1-0.1,0.2c0,0.1,0,0.2,0.1,0.2c0.1,0,0.1,0,0.2-0.1C33.7,44.5,33.6,44.4,33.5,44.2z"/>
		</g>
		<g>
			<g>
				<path d="M96.7,47.8c-0.1-0.3-0.2-0.7-0.3-0.9c-0.2-0.3-0.3-0.4-0.8-0.4h-1v5c0,0.8,0.1,0.9,1.1,1v0.3h-3v-0.3c1-0.1,1-0.2,1-1
					v-5h-0.9c-0.6,0-0.7,0.1-0.9,0.4c-0.1,0.2-0.2,0.5-0.3,0.8h-0.3c0.1-0.6,0.1-1.3,0.2-1.9h0.2c0.2,0.2,0.3,0.2,0.6,0.2h4.1
					c0.3,0,0.4,0,0.5-0.2h0.2c0,0.5,0,1.2,0.1,1.8L96.7,47.8z"/>
				<path d="M101,53c-0.2,0-0.4-0.1-0.5-0.2c-0.1-0.1-0.2-0.3-0.2-0.5C99.8,52.7,99.3,53,99,53c-0.7,0-1.3-0.6-1.3-1.3
					c0-0.5,0.3-0.8,0.8-1c0.6-0.2,1.4-0.5,1.6-0.7v-0.2c0-0.7-0.4-1.2-0.9-1.2c-0.2,0-0.4,0.1-0.5,0.2c-0.1,0.1-0.2,0.4-0.3,0.7
					c-0.1,0.2-0.1,0.2-0.3,0.2c-0.2,0-0.5-0.2-0.5-0.5c0-0.1,0.1-0.3,0.3-0.4c0.3-0.2,0.9-0.6,1.5-0.7c0.3,0,0.6,0.1,0.9,0.3
					c0.4,0.3,0.5,0.7,0.5,1.2v2c0,0.5,0.2,0.6,0.4,0.6c0.1,0,0.3-0.1,0.4-0.1l0.1,0.3L101,53z M100.2,50.4c-0.2,0.1-0.7,0.3-1,0.4
					c-0.4,0.2-0.6,0.4-0.6,0.8c0,0.5,0.4,0.8,0.7,0.8c0.3,0,0.6-0.2,0.8-0.4C100.2,51.6,100.2,50.9,100.2,50.4z"/>
				<path d="M104.5,52.9v-0.3c0.4-0.1,0.5-0.1,0.4-0.4l-0.8-1.2c-0.2,0.4-0.5,0.7-0.7,1.1c-0.2,0.4-0.2,0.4,0.4,0.5v0.3h-2v-0.3
					c0.7-0.1,0.8-0.2,1.2-0.7c0.3-0.4,0.6-0.8,0.9-1.3l-0.9-1.4c-0.3-0.5-0.4-0.6-1-0.6v-0.3h2.1v0.3c-0.4,0.1-0.5,0.1-0.3,0.4
					l0.6,0.9c0.2-0.3,0.4-0.7,0.6-1c0.2-0.3,0.1-0.4-0.3-0.4v-0.3h1.9v0.3c-0.6,0.1-0.8,0.1-1.2,0.6c-0.1,0.2-0.4,0.5-0.7,1.1l1,1.5
					c0.4,0.6,0.5,0.7,1.1,0.7v0.3H104.5z"/>
				<path d="M112.6,53c-0.2,0-0.4-0.1-0.5-0.2c-0.1-0.1-0.2-0.3-0.2-0.5c-0.4,0.3-0.9,0.7-1.2,0.7c-0.7,0-1.3-0.6-1.3-1.3
					c0-0.5,0.3-0.8,0.8-1c0.6-0.2,1.4-0.5,1.6-0.7v-0.2c0-0.7-0.4-1.2-0.9-1.2c-0.2,0-0.4,0.1-0.5,0.2c-0.1,0.1-0.2,0.4-0.3,0.7
					c-0.1,0.2-0.1,0.2-0.3,0.2c-0.2,0-0.5-0.2-0.5-0.5c0-0.1,0.1-0.3,0.3-0.4c0.3-0.2,0.9-0.6,1.5-0.7c0.3,0,0.6,0.1,0.9,0.3
					c0.4,0.3,0.5,0.7,0.5,1.2v2c0,0.5,0.2,0.6,0.4,0.6c0.1,0,0.3-0.1,0.4-0.1l0.1,0.3L112.6,53z M111.8,50.4c-0.2,0.1-0.7,0.3-1,0.4
					c-0.4,0.2-0.6,0.4-0.6,0.8c0,0.5,0.4,0.8,0.7,0.8c0.3,0,0.6-0.2,0.8-0.4C111.8,51.6,111.8,50.9,111.8,50.4z"/>
				<path d="M116.9,52.9v-0.3c0.6-0.1,0.7-0.1,0.7-0.8v-1.7c0-0.7-0.3-1.2-0.9-1.2c-0.4,0-0.8,0.2-1.1,0.5v2.4
					c0,0.7,0.1,0.7,0.7,0.8v0.3h-2.2v-0.3c0.7-0.1,0.7-0.1,0.7-0.8v-2.1c0-0.7-0.1-0.7-0.6-0.8v-0.3c0.5-0.1,1-0.2,1.4-0.4
					c0,0.2,0,0.6,0,0.8c0.2-0.1,0.4-0.3,0.7-0.5c0.3-0.2,0.6-0.3,0.9-0.3c0.8,0,1.3,0.6,1.3,1.6v2c0,0.7,0.1,0.7,0.7,0.8v0.3H116.9z
					"/>
				<path d="M124.7,52.7c-0.2,0-1,0.2-1.6,0.4c0-0.2,0-0.5,0-0.7c-0.2,0.1-0.5,0.3-0.6,0.4c-0.4,0.2-0.7,0.3-0.8,0.3
					c-0.8,0-1.9-0.8-1.9-2.3c0-1.4,1.3-2.5,2.7-2.5c0.1,0,0.5,0,0.7,0.1v-1.5c0-0.7-0.1-0.7-0.8-0.7v-0.3c0.5-0.1,1.2-0.2,1.6-0.4
					c0,0.4,0,0.8,0,1.3v5c0,0.5,0.1,0.6,0.5,0.6l0.3,0V52.7z M123.1,49.2c-0.2-0.4-0.7-0.5-1.1-0.5c-0.5,0-1.4,0.3-1.4,1.8
					c0,1.3,0.8,1.9,1.4,1.9c0.4,0,0.8-0.2,1-0.4V49.2z"/>
				<path d="M127.4,52.9v-0.3c0.7-0.1,0.7-0.1,0.7-0.8v-5c0-0.6-0.1-0.7-0.7-0.8v-0.3c0.6-0.1,1.2-0.2,1.5-0.4c0,0.5,0,1,0,1.5v4.9
					c0,0.7,0.1,0.7,0.7,0.8v0.3H127.4z"/>
				<path d="M133.6,53c-0.2,0-0.4-0.1-0.5-0.2c-0.1-0.1-0.2-0.3-0.2-0.5c-0.4,0.3-0.9,0.7-1.2,0.7c-0.7,0-1.3-0.6-1.3-1.3
					c0-0.5,0.3-0.8,0.8-1c0.6-0.2,1.4-0.5,1.6-0.7v-0.2c0-0.7-0.4-1.2-0.9-1.2c-0.2,0-0.4,0.1-0.5,0.2c-0.1,0.1-0.2,0.4-0.3,0.7
					c-0.1,0.2-0.1,0.2-0.3,0.2c-0.2,0-0.5-0.2-0.5-0.5c0-0.1,0.1-0.3,0.3-0.4c0.3-0.2,0.9-0.6,1.5-0.7c0.3,0,0.6,0.1,0.9,0.3
					c0.4,0.3,0.5,0.7,0.5,1.2v2c0,0.5,0.2,0.6,0.4,0.6c0.1,0,0.3-0.1,0.4-0.1l0.1,0.3L133.6,53z M132.8,50.4c-0.2,0.1-0.7,0.3-1,0.4
					c-0.4,0.2-0.6,0.4-0.6,0.8c0,0.5,0.4,0.8,0.7,0.8c0.3,0,0.6-0.2,0.8-0.4C132.8,51.6,132.8,50.9,132.8,50.4z"/>
				<path d="M141.8,48.7c-0.5,0.1-0.6,0.2-0.8,0.8c-0.3,0.8-0.8,2.2-1.2,3.6h-0.3c-0.4-1.1-0.8-2.2-1.2-3.2c-0.4,1-0.8,2.1-1.3,3.2
					h-0.3c-0.4-1.2-0.8-2.5-1.2-3.7c-0.2-0.6-0.3-0.6-0.8-0.7v-0.3h2.2v0.3c-0.6,0.1-0.7,0.2-0.5,0.6c0.2,0.8,0.5,1.6,0.8,2.4
					c0.4-1.1,0.8-2.1,1.2-3.3h0.3c0.4,1.1,0.8,2.2,1.2,3.3c0.2-0.6,0.6-1.6,0.8-2.4c0.1-0.5,0.1-0.6-0.7-0.7v-0.3h1.9V48.7z"/>
				<path d="M147.2,52.9v-0.3c0.6-0.1,0.7-0.1,0.7-0.7v-2.5c0-0.5,0-0.5-0.5-0.5h-1.4v3.1c0,0.6,0.1,0.7,0.7,0.7v0.3h-2.3v-0.3
					c0.7-0.1,0.7-0.1,0.7-0.7v-3.1h-0.7l0-0.1l0.2-0.3h0.5c0-1.1,0.3-1.8,1-2.3c0.4-0.3,0.9-0.5,1.3-0.6c0.7,0,1,0.3,1.2,0.5
					c0.1,0.1,0.1,0.2,0.1,0.3c0,0.1-0.2,0.3-0.3,0.4c-0.1,0.1-0.2,0.1-0.4-0.1c-0.2-0.2-0.6-0.6-1.1-0.6c-0.3,0-0.5,0.1-0.6,0.3
					c-0.2,0.3-0.4,0.9-0.4,1.7v0.3h0.8c0.8,0,1.5,0,2-0.1v3.6c0,0.6,0.1,0.7,0.7,0.7v0.3H147.2z"/>
				<path d="M152.3,52.9H150v-0.3c0.7-0.1,0.7-0.1,0.7-0.8v-2.2c0-0.7,0-0.7-0.6-0.8v-0.3c0.5-0.1,1-0.2,1.5-0.4c0,0.3,0,0.8,0,1.1
					c0.4-0.5,0.8-1.1,1.3-1.1c0.4,0,0.6,0.2,0.6,0.5c0,0.2-0.2,0.5-0.4,0.6c-0.1,0.1-0.2,0.1-0.3,0c-0.2-0.2-0.3-0.3-0.5-0.3
					c-0.2,0-0.6,0.3-0.8,0.8v1.9c0,0.7,0.1,0.7,0.8,0.8V52.9z"/>
				<path d="M159.5,52.9v-0.3c0.6-0.1,0.7-0.1,0.7-0.8v-1.7c0-0.7-0.2-1.2-0.9-1.2c-0.4,0-0.8,0.2-1.1,0.5c0,0.1,0,0.2,0,0.4v2
					c0,0.7,0.1,0.7,0.7,0.8v0.3h-2.2v-0.3c0.6-0.1,0.7-0.1,0.7-0.8v-1.8c0-0.8-0.2-1.2-0.9-1.2c-0.4,0-0.8,0.3-1.1,0.5v2.4
					c0,0.7,0.1,0.7,0.7,0.8v0.3h-2.2v-0.3c0.7-0.1,0.7-0.1,0.7-0.8v-2.1c0-0.7,0-0.7-0.6-0.8v-0.3c0.5-0.1,1-0.2,1.4-0.4
					c0,0.2,0,0.6,0,0.8c0.2-0.2,0.4-0.3,0.8-0.5c0.3-0.2,0.5-0.3,0.8-0.3c0.5,0,0.9,0.3,1.1,0.8c0.3-0.2,0.6-0.4,0.8-0.6
					c0.2-0.1,0.5-0.3,0.8-0.3c0.8,0,1.3,0.6,1.3,1.6v2c0,0.7,0.1,0.7,0.7,0.8v0.3H159.5z"/>
				<path d="M165,49.6c-0.2-0.6-0.5-1-1.1-1c-0.4,0-0.6,0.3-0.6,0.7c0,0.4,0.3,0.7,0.9,0.9c0.9,0.4,1.3,0.7,1.3,1.4
					c0,1-0.9,1.4-1.7,1.4c-0.5,0-1-0.2-1.2-0.3c-0.1-0.3-0.1-0.9-0.2-1.2l0.3-0.1c0.2,0.7,0.5,1.2,1.3,1.2c0.4,0,0.7-0.3,0.7-0.7
					c0-0.5-0.3-0.7-0.8-1c-0.7-0.4-1.3-0.7-1.3-1.4c0-0.8,0.6-1.3,1.6-1.3c0.4,0,0.8,0.1,1,0.1c0,0.2,0.1,0.9,0.2,1.1L165,49.6z"/>
			</g>
		</g>
	</g>
</g>
</svg>
