<svg width="15" height="15" viewBox="0 0 15 15" fill="none" xmlns="http://www.w3.org/2000/svg">
<path d="M8.55499 10.3785C8.69268 10.4417 8.84779 10.4562 8.99479 10.4195C9.14178 10.3827 9.27188 10.2971 9.36366 10.1765L9.60032 9.8665C9.72452 9.70091 9.88557 9.5665 10.0707 9.47393C10.2558 9.38136 10.46 9.33317 10.667 9.33317H12.667C13.0206 9.33317 13.3598 9.47365 13.6098 9.72369C13.8598 9.97374 14.0003 10.3129 14.0003 10.6665V12.6665C14.0003 13.0201 13.8598 13.3593 13.6098 13.6093C13.3598 13.8594 13.0206 13.9998 12.667 13.9998C9.48439 13.9998 6.43215 12.7356 4.18171 10.4851C1.93127 8.23468 0.666992 5.18243 0.666992 1.99984C0.666992 1.64622 0.807468 1.30708 1.05752 1.05703C1.30756 0.80698 1.6467 0.666504 2.00033 0.666504H4.00033C4.35395 0.666504 4.69309 0.80698 4.94313 1.05703C5.19318 1.30708 5.33366 1.64622 5.33366 1.99984V3.99984C5.33366 4.20683 5.28547 4.41098 5.19289 4.59612C5.10032 4.78126 4.96592 4.94231 4.80033 5.0665L4.48833 5.3005C4.36594 5.39396 4.27967 5.52689 4.24419 5.67674C4.2087 5.82658 4.22618 5.98409 4.29366 6.1225C5.20478 7.97308 6.70327 9.4697 8.55499 10.3785Z" stroke="#A7ABB3" stroke-width="1.33333" stroke-linecap="round" stroke-linejoin="round"/>
</svg>
