<svg width="28" height="28" viewBox="0 0 28 28" fill="none" xmlns="http://www.w3.org/2000/svg">
<path d="M26.679 12.1165L18.7503 9.24153L15.8665 1.30403C15.7245 0.921275 15.4686 0.59117 15.1335 0.358059C14.7983 0.124948 14.3998 0 13.9915 0C13.5833 0 13.1848 0.124948 12.8496 0.358059C12.5144 0.59117 12.2586 0.921275 12.1165 1.30403L9.24153 9.23278L1.30403 12.1165C0.921275 12.2586 0.59117 12.5144 0.358059 12.8496C0.124948 13.1848 0 13.5833 0 13.9915C0 14.3998 0.124948 14.7983 0.358059 15.1335C0.59117 15.4686 0.921275 15.7245 1.30403 15.8665L9.23278 18.7415L12.1165 26.679C12.2586 27.0618 12.5144 27.3919 12.8496 27.625C13.1848 27.8581 13.5833 27.9831 13.9915 27.9831C14.3998 27.9831 14.7983 27.8581 15.1335 27.625C15.4686 27.3919 15.7245 27.0618 15.8665 26.679L18.7503 18.749L26.679 15.8665C27.0618 15.7245 27.3919 15.4686 27.625 15.1335C27.8581 14.7983 27.9831 14.3998 27.9831 13.9915C27.9831 13.5833 27.8581 13.1848 27.625 12.8496C27.3919 12.5144 27.0618 12.2586 26.679 12.1165ZM18.0628 16.8665C17.7892 16.9665 17.5407 17.125 17.3347 17.3309C17.1287 17.5369 16.9702 17.7854 16.8703 18.059L13.9915 25.979L11.1165 18.0628C11.0167 17.7881 10.8578 17.5386 10.6511 17.3319C10.4444 17.1253 10.195 16.9664 9.92028 16.8665L2.00403 13.9915L9.92028 11.1165C10.195 11.0167 10.4444 10.8578 10.6511 10.6511C10.8578 10.4444 11.0167 10.195 11.1165 9.92028L13.9915 2.00403L16.8665 9.92028C16.9665 10.1939 17.125 10.4424 17.3309 10.6484C17.5369 10.8543 17.7854 11.0128 18.059 11.1128L25.9753 13.9878L18.0628 16.8665Z" fill="black"/>
</svg>
