<svg width="26" height="23" viewBox="0 0 26 23" fill="none" xmlns="http://www.w3.org/2000/svg">
<path d="M26.0007 22.0001C26.0007 22.2653 25.8953 22.5197 25.7078 22.7072C25.5202 22.8947 25.2659 23.0001 25.0007 23.0001H1.00066C0.735442 23.0001 0.481088 22.8947 0.293552 22.7072C0.106015 22.5197 0.000658384 22.2653 0.000658384 22.0001C0.000658384 21.7349 0.106015 21.4805 0.293552 21.293C0.481088 21.1055 0.735442 21.0001 1.00066 21.0001H25.0007C25.2659 21.0001 25.5202 21.1055 25.7078 21.293C25.8953 21.4805 26.0007 21.7349 26.0007 22.0001ZM0.199408 15.8551C0.0337687 15.5125 -0.0306937 15.1298 0.013589 14.7518C0.0578717 14.3739 0.209061 14.0164 0.449408 13.7214L10.6582 1.1176C10.9407 0.768564 11.2976 0.487076 11.7029 0.293713C12.1082 0.10035 12.5516 0 13.0007 0C13.4497 0 13.8931 0.10035 14.2984 0.293713C14.7037 0.487076 15.0606 0.768564 15.3432 1.1176L25.5494 13.7214C25.7883 14.0165 25.9389 14.3732 25.9837 14.7503C26.0284 15.1273 25.9656 15.5094 25.8025 15.8523C25.6393 16.1951 25.3825 16.4849 25.0617 16.688C24.7409 16.8911 24.3691 16.9993 23.9894 17.0001H2.01191C1.63227 17.0009 1.26024 16.8937 0.93928 16.691C0.618323 16.4882 0.361702 16.1983 0.199408 15.8551ZM2.00066 14.9889C2.00066 14.9889 2.00066 15.0001 2.01066 15.0026H23.9894C23.9894 15.0026 23.9994 14.9914 23.9994 14.9864L13.7882 2.3751C13.6932 2.25765 13.5733 2.16293 13.437 2.09785C13.3008 2.03277 13.1517 1.999 13.0007 1.999C12.8497 1.999 12.7006 2.03277 12.5643 2.09785C12.428 2.16293 12.3081 2.25765 12.2132 2.3751L2.00066 14.9801C2.00029 14.983 2.00029 14.9859 2.00066 14.9889Z" fill="black"/>
</svg>
